<svg version="1.0" xmlns="http://www.w3.org/2000/svg" width="403.000000pt" height="366.000000pt" viewBox="0 0 403.000000 366.000000"  preserveAspectRatio="xMidYMid meet">
    <g transform="translate(0.000000,366.000000) scale(0.100000,-0.100000)"  >
        <path d="M1882 3483 c-82 -63 -298 -250 -447 -389 -215 -201 -470 -476 -616
        -663 -34 -45 -65 -78 -68 -75 -3 3 -73 139 -156 302 -126 250 -154 298 -177
        306 -23 8 -44 -1 -170 -76 -99 -59 -146 -92 -152 -109 -7 -20 30 -106 213
        -502 l222 -479 -21 -98 c-11 -54 -20 -108 -20 -119 0 -14 -36 -45 -127 -108
        -158 -109 -157 -107 -77 -234 65 -103 87 -119 133 -96 l31 15 0 -207 c0 -115
        3 -228 6 -253 l6 -44 -43 -13 c-66 -19 -212 -89 -226 -108 -29 -37 -2 -93 44
        -93 11 0 55 16 98 35 135 62 447 145 543 145 15 0 88 -31 162 -68 124 -63 275
        -119 505 -187 119 -36 239 -94 320 -155 36 -28 74 -50 83 -50 10 0 49 23 87
        51 101 73 207 121 400 179 235 71 432 152 517 211 35 25 76 24 224 -6 148 -30
        292 -75 391 -121 39 -19 82 -34 95 -34 47 0 74 55 46 93 -15 19 -161 89 -227
        108 l-43 13 6 59 c3 33 6 147 6 253 l0 192 31 -15 c47 -24 70 -7 134 101 44
        73 56 101 51 120 -4 18 -42 50 -128 108 l-122 83 -24 123 -24 122 222 478
        c184 395 220 481 213 501 -10 29 -270 191 -307 191 -13 0 -30 -8 -38 -17 -9
        -10 -82 -151 -163 -313 l-148 -295 -26 35 c-204 269 -485 565 -811 855 -164
        146 -298 258 -327 273 -34 18 -47 15 -101 -25z m242 -250 c377 -324 823 -798
        947 -1005 139 -234 220 -554 250 -983 10 -149 8 -539 -3 -550 -2 -2 -28 2 -58
        9 -30 8 -72 17 -93 21 l-37 6 39 47 c81 97 120 222 101 322 -40 211 -309 575
        -640 864 -342 300 -584 412 -778 362 -284 -73 -750 -457 -1035 -854 -219 -304
        -244 -483 -97 -677 l49 -64 -37 -7 c-20 -3 -62 -12 -92 -20 -30 -7 -56 -11
        -58 -9 -11 11 -13 401 -3 550 26 378 89 655 201 890 84 176 247 373 594 721
        240 239 548 514 576 514 8 0 86 -62 174 -137z m-1599 -714 c83 -166 149 -304
        148 -308 -1 -3 -22 -55 -47 -116 l-45 -109 -25 54 c-13 30 -90 197 -170 370
        -80 173 -145 319 -143 324 3 9 114 84 127 85 3 1 73 -134 155 -300z m3065 264
        c34 -20 64 -41 66 -47 2 -7 -61 -153 -142 -326 -80 -173 -157 -340 -171 -370
        l-24 -55 -28 70 c-16 39 -37 90 -48 115 l-20 45 151 303 c83 166 152 302 153
        302 1 0 29 -17 63 -37z m-1540 -585 c80 -25 350 -184 350 -207 0 -4 -46 -17
        -102 -27 -146 -27 -548 -27 -690 -1 -54 11 -100 23 -103 27 -8 12 178 134 269
        175 118 55 180 62 276 33z m-598 -328 c269 -74 728 -74 996 0 50 14 78 17 90
        11 9 -5 56 -49 104 -98 l87 -88 -122 -121 c-67 -67 -148 -138 -179 -159 -83
        -54 -109 -52 -282 32 -190 92 -202 92 -392 0 -174 -84 -198 -87 -280 -32 -33
        21 -114 93 -182 159 l-123 121 99 97 c54 54 102 98 106 98 3 0 39 -9 78 -20z
        m-388 -453 c33 -143 78 -282 113 -352 17 -33 76 -101 177 -201 258 -258 443
        -374 598 -374 147 0 343 124 595 375 184 185 212 238 289 558 15 64 31 117 34
        117 3 0 39 -46 81 -103 229 -309 251 -439 101 -599 -116 -125 -332 -233 -662
        -333 -177 -53 -265 -89 -368 -152 l-72 -44 -73 45 c-96 60 -182 96 -367 151
        -417 126 -657 269 -735 437 -45 97 -29 182 66 339 50 84 178 259 188 259 3 0
        19 -55 35 -123z m301 -77 c155 -115 230 -115 442 -4 135 71 151 71 286 0 126
        -66 204 -91 264 -82 78 10 168 68 302 192 l74 68 -8 -34 c-21 -97 -79 -282
        -107 -339 -60 -124 -388 -419 -548 -495 -93 -44 -153 -42 -251 6 -108 54 -237
        155 -381 300 -97 97 -133 141 -157 190 -27 56 -86 242 -106 338 l-8 34 74 -68
        c41 -38 97 -86 124 -106z m-905 16 c0 -25 -6 -38 -27 -51 -25 -17 -27 -17 -40
        1 -7 10 -13 21 -13 25 0 5 67 56 78 58 1 1 2 -14 2 -33z m3060 -25 c0 -4 -6
        -16 -14 -26 -13 -18 -15 -18 -40 -2 -20 13 -26 26 -26 52 l0 35 40 -26 c22
        -15 40 -30 40 -33z" />
        <path d="M1414 1751 c-82 -50 -34 -148 91 -187 47 -15 62 -16 110 -5 66 15
        125 64 125 105 0 76 -239 140 -326 87z"/>
        <path d="M2266 1749 c-76 -31 -106 -56 -106 -89 0 -50 95 -110 173 -110 15 0
        50 9 80 20 115 43 151 142 68 185 -43 22 -154 19 -215 -6z"/>
    </g>
</svg>
